<svg width="1648" height="254" viewBox="0 0 1648 254" fill="none" xmlns="http://www.w3.org/2000/svg">
<mask id="path-1-outside-1_87_3" maskUnits="userSpaceOnUse" x="0.262695" y="0.028717" width="1648" height="254" fill="black">
<rect fill="white" x="0.262695" y="0.028717" width="1648" height="254"/>
<path d="M7.2627 242.701V11.0007H112.521C137.677 11.0007 159.854 15.8554 179.052 25.5647C198.25 35.0534 213.255 48.4037 224.068 65.6157C234.88 82.8277 240.287 103.239 240.287 126.851C240.287 150.241 234.88 170.653 224.068 188.086C213.255 205.298 198.25 218.758 179.052 228.468C159.854 237.956 137.677 242.701 112.521 242.701H7.2627ZM60.8847 198.678H109.873C125.319 198.678 138.67 195.809 149.924 190.072C161.398 184.114 170.225 175.728 176.404 164.916C182.803 154.103 186.003 141.415 186.003 126.851C186.003 112.066 182.803 99.3777 176.404 88.7857C170.225 77.9731 161.398 69.6981 149.924 63.9607C138.67 58.0027 125.319 55.0237 109.873 55.0237H60.8847V198.678ZM383.667 246.673C350.787 246.673 325.08 237.515 306.544 219.2C288.008 200.884 278.74 174.735 278.74 140.753V11.0007H332.362V138.767C332.362 160.833 336.885 176.721 345.933 186.431C354.98 196.14 367.668 200.995 383.998 200.995C400.327 200.995 413.015 196.14 422.063 186.431C431.11 176.721 435.634 160.833 435.634 138.767V11.0007H488.594V140.753C488.594 174.735 479.326 200.884 460.79 219.2C442.254 237.515 416.546 246.673 383.667 246.673ZM541.582 242.701V11.0007H641.875C662.618 11.0007 680.492 14.421 695.497 21.2617C710.502 27.8817 722.087 37.4807 730.252 50.0587C738.417 62.6367 742.499 77.642 742.499 95.0747C742.499 112.287 738.417 127.182 730.252 139.76C722.087 152.117 710.502 161.606 695.497 168.226C680.492 174.846 662.618 178.156 641.875 178.156H571.372L595.204 154.655V242.701H541.582ZM688.877 242.701L630.952 158.627H688.215L746.802 242.701H688.877ZM595.204 160.613L571.372 135.457H638.896C655.446 135.457 667.803 131.926 675.968 124.865C684.133 117.583 688.215 107.653 688.215 95.0747C688.215 82.276 684.133 72.3461 675.968 65.2847C667.803 58.2234 655.446 54.6927 638.896 54.6927H571.372L595.204 29.2057V160.613ZM784.983 242.701V11.0007H838.605V242.701H784.983ZM1005.47 246.673C987.155 246.673 970.274 243.804 954.828 238.067C939.602 232.109 926.251 223.723 914.777 212.911C903.523 202.098 894.696 189.41 888.297 174.846C882.118 160.282 879.029 144.283 879.029 126.851C879.029 109.418 882.118 93.4197 888.297 78.8557C894.696 64.2917 903.633 51.6034 915.108 40.7907C926.582 29.978 940.043 21.703 955.49 15.9657C970.936 10.0077 987.928 7.02872 1006.46 7.02872C1026.99 7.02872 1045.41 10.449 1061.74 17.2897C1078.29 24.1304 1092.19 34.0604 1103.45 47.0797L1069.02 78.8557C1060.64 70.029 1051.48 63.5194 1041.55 59.3267C1031.62 54.9134 1020.81 52.7067 1009.11 52.7067C997.858 52.7067 987.597 54.4721 978.329 58.0027C969.061 61.5334 961.006 66.6087 954.166 73.2287C947.546 79.8487 942.36 87.6824 938.609 96.7297C935.078 105.777 933.313 115.817 933.313 126.851C933.313 137.663 935.078 147.593 938.609 156.641C942.36 165.688 947.546 173.632 954.166 180.473C961.006 187.093 968.95 192.168 977.998 195.699C987.266 199.229 997.416 200.995 1008.45 200.995C1019.04 200.995 1029.3 199.34 1039.23 196.03C1049.38 192.499 1059.2 186.651 1068.69 178.487L1099.14 217.214C1086.57 226.702 1071.89 233.984 1055.12 239.06C1038.57 244.135 1022.02 246.673 1005.47 246.673ZM1050.16 210.263V123.21H1099.14V217.214L1050.16 210.263ZM1261.49 246.673C1243.18 246.673 1226.19 243.694 1210.52 237.736C1195.07 231.778 1181.61 223.392 1170.14 212.58C1158.88 201.767 1150.06 189.079 1143.66 174.515C1137.48 159.951 1134.39 144.063 1134.39 126.851C1134.39 109.639 1137.48 93.7507 1143.66 79.1867C1150.06 64.6227 1158.99 51.9344 1170.47 41.1217C1181.94 30.309 1195.4 21.9237 1210.85 15.9657C1226.3 10.0077 1243.07 7.02872 1261.16 7.02872C1279.48 7.02872 1296.25 10.0077 1311.48 15.9657C1326.92 21.9237 1340.27 30.309 1351.53 41.1217C1363 51.9344 1371.94 64.6227 1378.34 79.1867C1384.74 93.53 1387.94 109.418 1387.94 126.851C1387.94 144.063 1384.74 160.061 1378.34 174.846C1371.94 189.41 1363 202.098 1351.53 212.911C1340.27 223.503 1326.92 231.778 1311.48 237.736C1296.25 243.694 1279.59 246.673 1261.49 246.673ZM1261.16 200.995C1271.53 200.995 1281.02 199.229 1289.63 195.699C1298.46 192.168 1306.18 187.093 1312.8 180.473C1319.42 173.853 1324.49 166.019 1328.03 156.972C1331.78 147.924 1333.65 137.884 1333.65 126.851C1333.65 115.817 1331.78 105.777 1328.03 96.7297C1324.49 87.6824 1319.42 79.8487 1312.8 73.2287C1306.4 66.6087 1298.79 61.5334 1289.96 58.0027C1281.13 54.4721 1271.53 52.7067 1261.16 52.7067C1250.79 52.7067 1241.19 54.4721 1232.37 58.0027C1223.76 61.5334 1216.15 66.6087 1209.53 73.2287C1202.91 79.8487 1197.72 87.6824 1193.97 96.7297C1190.44 105.777 1188.67 115.817 1188.67 126.851C1188.67 137.663 1190.44 147.704 1193.97 156.972C1197.72 166.019 1202.8 173.853 1209.2 180.473C1215.82 187.093 1223.54 192.168 1232.37 195.699C1241.19 199.229 1250.79 200.995 1261.16 200.995ZM1428.24 242.701V11.0007H1472.59L1609.29 177.825H1587.78V11.0007H1640.74V242.701H1596.71L1459.68 75.8767H1481.2V242.701H1428.24Z"/>
</mask>
<path d="M7.2627 242.701H0.262695V249.701H7.2627V242.701ZM7.2627 11.0007V4.00071H0.262695V11.0007H7.2627ZM179.052 25.5647L175.893 31.8113L175.921 31.8258L175.95 31.8401L179.052 25.5647ZM224.068 188.086L229.995 191.809L230.006 191.792L230.016 191.775L224.068 188.086ZM179.052 228.468L182.153 234.743L182.182 234.729L182.211 234.714L179.052 228.468ZM60.8847 198.678H53.8847V205.678H60.8847V198.678ZM149.924 190.072L153.103 196.308L153.126 196.296L153.149 196.284L149.924 190.072ZM176.404 164.916L170.38 161.35L170.352 161.396L170.326 161.443L176.404 164.916ZM176.404 88.7857L170.326 92.2587L170.368 92.3326L170.412 92.4055L176.404 88.7857ZM149.924 63.9607L146.648 70.1472L146.72 70.1853L146.793 70.2217L149.924 63.9607ZM60.8847 55.0237V48.0237H53.8847V55.0237H60.8847ZM306.544 219.2L311.464 214.22L311.464 214.22L306.544 219.2ZM278.74 11.0007V4.00071H271.74V11.0007H278.74ZM332.362 11.0007H339.362V4.00071H332.362V11.0007ZM345.933 186.431L340.811 191.203L340.811 191.203L345.933 186.431ZM422.063 186.431L427.184 191.203L427.184 191.203L422.063 186.431ZM435.634 11.0007V4.00071H428.634V11.0007H435.634ZM488.594 11.0007H495.594V4.00071H488.594V11.0007ZM460.79 219.2L465.71 224.179L465.71 224.179L460.79 219.2ZM541.582 242.701H534.582V249.701H541.582V242.701ZM541.582 11.0007V4.00071H534.582V11.0007H541.582ZM695.497 21.2617L692.593 27.6311L692.632 27.6488L692.672 27.6661L695.497 21.2617ZM730.252 50.0587L724.381 53.87L724.381 53.87L730.252 50.0587ZM730.252 139.76L736.092 143.619L736.108 143.595L736.124 143.571L730.252 139.76ZM695.497 168.226L698.323 174.63L698.323 174.63L695.497 168.226ZM571.372 178.156L566.457 173.171L554.304 185.156H571.372V178.156ZM595.204 154.655H602.204V137.921L590.289 149.67L595.204 154.655ZM595.204 242.701V249.701H602.204V242.701H595.204ZM688.877 242.701L683.113 246.672L685.199 249.701H688.877V242.701ZM630.952 158.627V151.627H617.629L625.188 162.598L630.952 158.627ZM688.215 158.627L693.958 154.625L691.869 151.627H688.215V158.627ZM746.802 242.701V249.701H760.212L752.545 238.699L746.802 242.701ZM595.204 160.613L590.122 165.427L602.204 178.18V160.613H595.204ZM571.372 135.457V128.457H555.098L566.29 140.271L571.372 135.457ZM675.968 124.865L680.547 130.159L680.587 130.124L680.627 130.089L675.968 124.865ZM571.372 54.6927L566.259 49.9118L555.243 61.6927H571.372V54.6927ZM595.204 29.2057H602.204V11.4706L590.091 24.4247L595.204 29.2057ZM784.983 242.701H777.983V249.701H784.983V242.701ZM784.983 11.0007V4.00071H777.983V11.0007H784.983ZM838.605 11.0007H845.605V4.00071H838.605V11.0007ZM838.605 242.701V249.701H845.605V242.701H838.605ZM954.828 238.067L952.277 244.585L952.334 244.608L952.39 244.629L954.828 238.067ZM914.777 212.911L909.927 217.958L909.951 217.982L909.976 218.005L914.777 212.911ZM888.297 174.846L881.853 177.58L881.87 177.621L881.888 177.662L888.297 174.846ZM888.297 78.8557L881.888 76.0398L881.87 76.0807L881.853 76.1219L888.297 78.8557ZM915.108 40.7907L919.908 45.8852L919.908 45.8852L915.108 40.7907ZM955.49 15.9657L957.927 22.5277L957.968 22.5125L958.009 22.4967L955.49 15.9657ZM1061.74 17.2897L1059.04 23.7461L1059.05 23.7525L1059.07 23.7589L1061.74 17.2897ZM1103.45 47.0797L1108.19 52.2233L1113.17 47.6278L1108.74 42.502L1103.45 47.0797ZM1069.02 78.8557L1063.95 83.677L1068.7 88.6797L1073.77 83.9993L1069.02 78.8557ZM1041.55 59.3267L1038.71 65.7234L1038.77 65.75L1038.83 65.7755L1041.55 59.3267ZM954.166 73.2287L949.298 68.1985L949.257 68.2384L949.216 68.279L954.166 73.2287ZM938.609 96.7297L932.143 94.0486L932.114 94.1165L932.088 94.1849L938.609 96.7297ZM938.609 156.641L932.088 159.186L932.114 159.254L932.143 159.322L938.609 156.641ZM954.166 180.473L949.136 185.341L949.215 185.423L949.298 185.503L954.166 180.473ZM977.998 195.699L975.453 202.22L975.479 202.23L975.506 202.24L977.998 195.699ZM1039.23 196.03L1041.45 202.671L1041.49 202.656L1041.53 202.641L1039.23 196.03ZM1068.69 178.487L1074.19 174.16L1069.67 168.409L1064.13 173.181L1068.69 178.487ZM1099.14 217.214L1103.36 222.802L1106.14 220.701V217.214H1099.14ZM1055.12 239.06L1053.09 232.36L1053.08 232.364L1053.07 232.367L1055.12 239.06ZM1050.16 210.263H1043.16V216.34L1049.17 217.193L1050.16 210.263ZM1050.16 123.21V116.21H1043.16V123.21H1050.16ZM1099.14 123.21H1106.14V116.21H1099.14V123.21ZM1210.52 237.736L1208 244.267L1208.02 244.273L1208.03 244.279L1210.52 237.736ZM1170.14 212.58L1165.29 217.627L1165.31 217.651L1165.34 217.674L1170.14 212.58ZM1143.66 174.515L1137.21 177.249L1137.23 177.29L1137.25 177.331L1143.66 174.515ZM1143.66 79.1867L1137.25 76.3708L1137.23 76.4117L1137.21 76.4529L1143.66 79.1867ZM1210.85 15.9657L1208.33 9.43469L1208.33 9.43469L1210.85 15.9657ZM1311.48 15.9657L1308.92 22.4844L1308.94 22.4906L1308.96 22.4967L1311.48 15.9657ZM1351.53 41.1217L1346.68 46.1694L1346.7 46.193L1346.73 46.2162L1351.53 41.1217ZM1378.34 79.1867L1371.93 82.0026L1371.94 82.0207L1371.94 82.0388L1378.34 79.1867ZM1378.34 174.846L1384.75 177.662L1384.75 177.644L1384.76 177.626L1378.34 174.846ZM1351.53 212.911L1356.32 218.008L1356.33 218.005L1351.53 212.911ZM1311.48 237.736L1308.96 231.205L1308.94 231.211L1308.92 231.217L1311.48 237.736ZM1289.63 195.699L1287.03 189.199L1287 189.211L1286.97 189.223L1289.63 195.699ZM1312.8 180.473L1307.85 175.523L1307.85 175.523L1312.8 180.473ZM1328.03 156.972L1321.56 154.291L1321.53 154.358L1321.5 154.427L1328.03 156.972ZM1328.03 96.7297L1321.5 99.2745L1321.53 99.343L1321.56 99.4108L1328.03 96.7297ZM1312.8 73.2287L1307.77 78.0939L1307.81 78.1365L1307.85 78.1785L1312.8 73.2287ZM1289.96 58.0027L1287.36 64.5021L1287.36 64.5021L1289.96 58.0027ZM1232.37 58.0027L1229.77 51.5034L1229.74 51.5148L1229.71 51.5265L1232.37 58.0027ZM1209.53 73.2287L1214.48 78.1785L1214.48 78.1785L1209.53 73.2287ZM1193.97 96.7297L1187.5 94.0486L1187.48 94.1165L1187.45 94.1849L1193.97 96.7297ZM1193.97 156.972L1187.43 159.464L1187.46 159.559L1187.5 159.653L1193.97 156.972ZM1209.2 180.473L1204.16 185.338L1204.2 185.381L1204.25 185.422L1209.2 180.473ZM1232.37 195.699L1229.77 202.198L1229.77 202.198L1232.37 195.699ZM1428.24 242.701H1421.24V249.701H1428.24V242.701ZM1428.24 11.0007V4.00071H1421.24V11.0007H1428.24ZM1472.59 11.0007L1478 6.56395L1475.9 4.00071H1472.59V11.0007ZM1609.29 177.825V184.825H1624.08L1614.71 173.388L1609.29 177.825ZM1587.78 177.825H1580.78V184.825H1587.78V177.825ZM1587.78 11.0007V4.00071H1580.78V11.0007H1587.78ZM1640.74 11.0007H1647.74V4.00071H1640.74V11.0007ZM1640.74 242.701V249.701H1647.74V242.701H1640.74ZM1596.71 242.701L1591.31 247.144L1593.41 249.701H1596.71V242.701ZM1459.68 75.8767V68.8767H1444.87L1454.27 80.3199L1459.68 75.8767ZM1481.2 75.8767H1488.2V68.8767H1481.2V75.8767ZM1481.2 242.701V249.701H1488.2V242.701H1481.2ZM14.2627 242.701V11.0007H0.262695V242.701H14.2627ZM7.2627 18.0007H112.521V4.00071H7.2627V18.0007ZM112.521 18.0007C136.765 18.0007 157.827 22.6747 175.893 31.8113L182.211 19.3182C161.88 9.03602 138.589 4.00071 112.521 4.00071V18.0007ZM175.95 31.8401C194.053 40.7877 208.053 53.2824 218.14 69.3394L229.995 61.8921C218.457 43.525 202.446 29.3191 182.153 19.2894L175.95 31.8401ZM218.14 69.3394C228.145 85.2654 233.287 104.34 233.287 126.851H247.287C247.287 102.139 241.616 80.3901 229.995 61.8921L218.14 69.3394ZM233.287 126.851C233.287 149.125 228.152 168.22 218.119 184.396L230.016 191.775C241.609 173.086 247.287 151.358 247.287 126.851H233.287ZM218.14 184.362C208.044 200.434 194.025 213.051 175.893 222.221L182.211 234.714C202.475 224.466 218.466 210.162 229.995 191.809L218.14 184.362ZM175.95 222.192C157.871 231.128 136.788 235.701 112.521 235.701V249.701C138.565 249.701 161.836 244.785 182.153 234.743L175.95 222.192ZM112.521 235.701H7.2627V249.701H112.521V235.701ZM60.8847 205.678H109.873V191.678H60.8847V205.678ZM109.873 205.678C126.182 205.678 140.669 202.647 153.103 196.308L146.744 183.835C136.671 188.971 124.457 191.678 109.873 191.678V205.678ZM153.149 196.284C165.77 189.731 175.609 180.416 182.481 168.389L170.326 161.443C164.841 171.041 157.027 178.496 146.698 183.859L153.149 196.284ZM182.428 168.481C189.562 156.427 193.003 142.467 193.003 126.851H179.003C179.003 140.363 176.044 151.779 170.38 161.35L182.428 168.481ZM193.003 126.851C193.003 111.04 189.573 97.0459 182.395 85.1659L170.412 92.4055C176.033 101.71 179.003 113.092 179.003 126.851H193.003ZM182.481 85.3127C175.595 73.2624 165.725 64.0353 153.054 57.6997L146.793 70.2217C157.071 75.3608 164.855 82.6837 170.326 92.2587L182.481 85.3127ZM153.199 57.7742C140.742 51.1796 126.22 48.0237 109.873 48.0237V62.0237C124.419 62.0237 136.597 64.8258 146.648 70.1472L153.199 57.7742ZM109.873 48.0237H60.8847V62.0237H109.873V48.0237ZM53.8847 55.0237V198.678H67.8847V55.0237H53.8847ZM383.667 239.673C352.122 239.673 328.368 230.924 311.464 214.22L301.624 224.179C321.791 244.106 349.452 253.673 383.667 253.673V239.673ZM311.464 214.22C294.628 197.586 285.74 173.458 285.74 140.753H271.74C271.74 176.013 281.387 204.183 301.624 224.179L311.464 214.22ZM285.74 140.753V11.0007H271.74V140.753H285.74ZM278.74 18.0007H332.362V4.00071H278.74V18.0007ZM325.362 11.0007V138.767H339.362V11.0007H325.362ZM325.362 138.767C325.362 161.505 329.973 179.571 340.811 191.203L351.054 181.659C343.798 173.872 339.362 160.162 339.362 138.767H325.362ZM340.811 191.203C351.478 202.65 366.207 207.995 383.998 207.995V193.995C369.13 193.995 358.482 189.63 351.054 181.659L340.811 191.203ZM383.998 207.995C401.789 207.995 416.517 202.65 427.184 191.203L416.941 181.659C409.514 189.63 398.865 193.995 383.998 193.995V207.995ZM427.184 191.203C438.023 179.571 442.634 161.505 442.634 138.767H428.634C428.634 160.162 424.197 173.872 416.941 181.659L427.184 191.203ZM442.634 138.767V11.0007H428.634V138.767H442.634ZM435.634 18.0007H488.594V4.00071H435.634V18.0007ZM481.594 11.0007V140.753H495.594V11.0007H481.594ZM481.594 140.753C481.594 173.458 472.705 197.586 455.87 214.22L465.71 224.179C485.946 204.183 495.594 176.013 495.594 140.753H481.594ZM455.87 214.22C438.965 230.924 415.211 239.673 383.667 239.673V253.673C417.881 253.673 445.542 244.106 465.71 224.179L455.87 214.22ZM548.582 242.701V11.0007H534.582V242.701H548.582ZM541.582 18.0007H641.875V4.00071H541.582V18.0007ZM641.875 18.0007C661.866 18.0007 678.703 21.2986 692.593 27.6311L698.401 14.8924C682.281 7.54348 663.369 4.00071 641.875 4.00071V18.0007ZM692.672 27.6661C706.553 33.7901 717.027 42.5408 724.381 53.87L736.124 46.2474C727.148 32.4206 714.452 21.9733 698.323 14.8573L692.672 27.6661ZM724.381 53.87C731.695 65.1385 735.499 78.7701 735.499 95.0747H749.499C749.499 76.514 745.138 60.1349 736.124 46.2474L724.381 53.87ZM735.499 95.0747C735.499 111.139 731.704 124.666 724.381 135.948L736.124 143.571C745.129 129.698 749.499 113.434 749.499 95.0747H735.499ZM724.412 135.901C717.065 147.02 706.585 155.683 692.672 161.821L698.323 174.63C714.42 167.528 727.11 157.214 736.092 143.619L724.412 135.901ZM692.672 161.821C678.759 167.959 661.893 171.156 641.875 171.156V185.156C663.342 185.156 682.225 181.732 698.323 174.63L692.672 161.821ZM641.875 171.156H571.372V185.156H641.875V171.156ZM576.287 183.14L600.119 159.639L590.289 149.67L566.457 173.171L576.287 183.14ZM588.204 154.655V242.701H602.204V154.655H588.204ZM595.204 235.701H541.582V249.701H595.204V235.701ZM694.641 238.729L636.716 154.655L625.188 162.598L683.113 246.672L694.641 238.729ZM630.952 165.627H688.215V151.627H630.952V165.627ZM682.472 162.629L741.059 246.703L752.545 238.699L693.958 154.625L682.472 162.629ZM746.802 235.701H688.877V249.701H746.802V235.701ZM600.286 155.798L576.454 130.643L566.29 140.271L590.122 165.427L600.286 155.798ZM571.372 142.457H638.896V128.457H571.372V142.457ZM638.896 142.457C656.268 142.457 670.584 138.776 680.547 130.159L671.389 119.57C665.023 125.076 654.625 128.457 638.896 128.457V142.457ZM680.627 130.089C690.511 121.274 695.215 109.318 695.215 95.0747H681.215C681.215 105.987 677.754 113.892 671.309 119.641L680.627 130.089ZM695.215 95.0747C695.215 80.6586 690.538 68.6306 680.547 59.9902L671.389 70.5793C677.728 76.0615 681.215 83.8935 681.215 95.0747H695.215ZM680.547 59.9902C670.584 51.3731 656.268 47.6927 638.896 47.6927V61.6927C654.625 61.6927 665.023 65.0736 671.389 70.5793L680.547 59.9902ZM638.896 47.6927H571.372V61.6927H638.896V47.6927ZM576.485 59.4737L600.317 33.9867L590.091 24.4247L566.259 49.9118L576.485 59.4737ZM588.204 29.2057V160.613H602.204V29.2057H588.204ZM791.983 242.701V11.0007H777.983V242.701H791.983ZM784.983 18.0007H838.605V4.00071H784.983V18.0007ZM831.605 11.0007V242.701H845.605V11.0007H831.605ZM838.605 235.701H784.983V249.701H838.605V235.701ZM1005.47 239.673C987.895 239.673 971.85 236.922 957.265 231.505L952.39 244.629C968.699 250.686 986.416 253.673 1005.47 253.673V239.673ZM957.379 231.548C942.955 225.904 930.376 217.992 919.577 207.816L909.976 218.005C922.127 229.455 936.248 238.313 952.277 244.585L957.379 231.548ZM919.627 207.863C909.046 197.698 900.743 185.772 894.705 172.03L881.888 177.662C888.649 193.048 897.999 206.499 909.927 217.958L919.627 207.863ZM894.741 172.112C888.965 158.497 886.029 143.44 886.029 126.851H872.029C872.029 145.127 875.271 162.066 881.853 177.58L894.741 172.112ZM886.029 126.851C886.029 110.261 888.965 95.2045 894.741 81.5896L881.853 76.1219C875.271 91.635 872.029 108.575 872.029 126.851H886.029ZM894.705 81.6716C900.73 67.9594 909.123 56.048 919.908 45.8852L910.307 35.6962C898.143 47.1588 888.662 60.624 881.888 76.0398L894.705 81.6716ZM919.908 45.8852C930.671 35.7438 943.318 27.9539 957.927 22.5277L953.052 9.40372C936.768 15.4522 922.494 24.2123 910.307 35.6962L919.908 45.8852ZM958.009 22.4967C972.561 16.8836 988.687 14.0287 1006.46 14.0287V0.028717C987.169 0.028717 969.311 3.13183 952.971 9.43469L958.009 22.4967ZM1006.46 14.0287C1026.2 14.0287 1043.69 17.3167 1059.04 23.7461L1064.45 10.8333C1047.13 3.58136 1027.77 0.028717 1006.46 0.028717V14.0287ZM1059.07 23.7589C1074.65 30.1997 1087.64 39.4984 1098.15 51.6574L1108.74 42.502C1096.74 28.6223 1081.93 18.061 1064.41 10.8205L1059.07 23.7589ZM1098.7 41.9361L1064.27 73.7121L1073.77 83.9993L1108.19 52.2233L1098.7 41.9361ZM1074.1 74.0345C1065.13 64.5996 1055.2 57.4911 1044.27 52.878L1038.83 65.7755C1047.76 69.5477 1056.14 75.4585 1063.95 83.677L1074.1 74.0345ZM1044.39 52.93C1033.5 48.0893 1021.71 45.7067 1009.11 45.7067V59.7067C1019.9 59.7067 1029.74 61.7375 1038.71 65.7234L1044.39 52.93ZM1009.11 45.7067C997.12 45.7067 986 47.5895 975.837 51.4613L980.821 64.5441C989.193 61.3546 998.596 59.7067 1009.11 59.7067V45.7067ZM975.837 51.4613C965.721 55.3151 956.848 60.8914 949.298 68.1985L959.034 78.2589C965.164 72.326 972.401 67.7516 980.821 64.5441L975.837 51.4613ZM949.216 68.279C941.917 75.5782 936.229 84.1927 932.143 94.0486L945.075 99.4108C948.491 91.172 953.175 84.1192 959.116 78.1785L949.216 68.279ZM932.088 94.1849C928.2 104.146 926.313 115.064 926.313 126.851H940.313C940.313 116.571 941.956 107.408 945.13 99.2745L932.088 94.1849ZM926.313 126.851C926.313 138.436 928.207 149.24 932.088 159.186L945.13 154.096C941.95 145.947 940.313 136.891 940.313 126.851H926.313ZM932.143 159.322C936.221 169.158 941.886 177.849 949.136 185.341L959.196 175.605C953.206 169.415 948.499 162.218 945.075 153.96L932.143 159.322ZM949.298 185.503C956.82 192.782 965.558 198.358 975.453 202.22L980.543 189.178C972.343 185.978 965.193 181.403 959.034 175.443L949.298 185.503ZM975.506 202.24C985.654 206.106 996.66 207.995 1008.45 207.995V193.995C998.173 193.995 988.877 192.353 980.49 189.157L975.506 202.24ZM1008.45 207.995C1019.79 207.995 1030.79 206.221 1041.45 202.671L1037.02 189.389C1027.81 192.458 1018.3 193.995 1008.45 193.995V207.995ZM1041.53 202.641C1052.64 198.778 1063.21 192.438 1073.26 183.793L1064.13 173.181C1055.2 180.865 1046.13 186.22 1036.93 189.418L1041.53 202.641ZM1063.19 182.814L1093.64 221.541L1104.65 212.887L1074.19 174.16L1063.19 182.814ZM1094.93 211.626C1083.08 220.565 1069.16 227.497 1053.09 232.36L1057.15 245.76C1074.62 240.472 1090.05 232.84 1103.36 222.802L1094.93 211.626ZM1053.07 232.367C1037.15 237.248 1021.29 239.673 1005.47 239.673V253.673C1022.75 253.673 1039.99 251.022 1057.17 245.752L1053.07 232.367ZM1057.16 210.263V123.21H1043.16V210.263H1057.16ZM1050.16 130.21H1099.14V116.21H1050.16V130.21ZM1092.14 123.21V217.214H1106.14V123.21H1092.14ZM1100.13 210.283L1051.14 203.332L1049.17 217.193L1098.16 224.144L1100.13 210.283ZM1261.49 239.673C1243.95 239.673 1227.81 236.822 1213.01 231.193L1208.03 244.279C1224.56 250.566 1242.41 253.673 1261.49 253.673V239.673ZM1213.04 231.205C1198.4 225.557 1185.72 217.645 1174.94 207.485L1165.34 217.674C1177.51 229.14 1191.75 237.999 1208 244.267L1213.04 231.205ZM1174.99 207.532C1164.41 197.367 1156.1 185.441 1150.07 171.699L1137.25 177.331C1144.01 192.717 1153.36 206.168 1165.29 217.627L1174.99 207.532ZM1150.1 171.781C1144.32 158.155 1141.39 143.207 1141.39 126.851H1127.39C1127.39 144.919 1130.64 161.746 1137.21 177.249L1150.1 171.781ZM1141.39 126.851C1141.39 110.495 1144.32 95.5463 1150.1 81.9206L1137.21 76.4529C1130.64 91.9552 1127.39 108.783 1127.39 126.851H1141.39ZM1150.07 82.0026C1156.09 68.2904 1164.48 56.379 1175.27 46.2162L1165.67 36.0272C1153.5 47.4898 1144.02 60.955 1137.25 76.3708L1150.07 82.0026ZM1175.27 46.2162C1186.05 36.0566 1198.73 28.1448 1213.37 22.4967L1208.33 9.43469C1192.08 15.7026 1177.84 24.5615 1165.67 36.0272L1175.27 46.2162ZM1213.37 22.4967C1227.94 16.8763 1243.85 14.0287 1261.16 14.0287V0.028717C1242.29 0.028717 1224.65 3.13908 1208.33 9.43469L1213.37 22.4967ZM1261.16 14.0287C1278.71 14.0287 1294.6 16.8804 1308.92 22.4844L1314.03 9.447C1297.9 3.13498 1280.25 0.028717 1261.16 0.028717V14.0287ZM1308.96 22.4967C1323.59 28.1407 1336.13 36.0397 1346.68 46.1694L1356.38 36.074C1344.41 24.5784 1330.26 15.7067 1313.99 9.43469L1308.96 22.4967ZM1346.73 46.2162C1357.51 56.379 1365.9 68.2904 1371.93 82.0026L1384.75 76.3708C1377.97 60.955 1368.49 47.4898 1356.33 36.0272L1346.73 46.2162ZM1371.94 82.0388C1377.9 95.3905 1380.94 110.292 1380.94 126.851H1394.94C1394.94 108.544 1391.57 91.6696 1384.73 76.3346L1371.94 82.0388ZM1380.94 126.851C1380.94 143.173 1377.91 158.217 1371.91 172.065L1384.76 177.626C1391.57 161.905 1394.94 144.953 1394.94 126.851H1380.94ZM1371.93 172.03C1365.9 185.742 1357.51 197.653 1346.73 207.816L1356.33 218.005C1368.49 206.543 1377.97 193.077 1384.75 177.662L1371.93 172.03ZM1346.73 207.813C1336.18 217.741 1323.62 225.549 1308.96 231.205L1313.99 244.267C1330.23 238.006 1344.36 229.264 1356.32 218.008L1346.73 207.813ZM1308.92 231.217C1294.59 236.825 1278.81 239.673 1261.49 239.673V253.673C1280.37 253.673 1297.9 250.563 1314.03 244.254L1308.92 231.217ZM1261.16 207.995C1272.34 207.995 1282.75 206.089 1292.29 202.175L1286.97 189.223C1279.3 192.37 1270.73 193.995 1261.16 193.995V207.995ZM1292.23 202.198C1301.92 198.321 1310.45 192.723 1317.75 185.422L1307.85 175.523C1301.91 181.462 1294.99 186.015 1287.03 189.199L1292.23 202.198ZM1317.75 185.422C1325.08 178.092 1330.68 169.431 1334.55 159.517L1321.5 154.427C1318.31 162.607 1313.76 169.613 1307.85 175.523L1317.75 185.422ZM1334.49 159.653C1338.64 149.655 1340.65 138.688 1340.65 126.851H1326.65C1326.65 137.08 1324.92 146.194 1321.56 154.291L1334.49 159.653ZM1340.65 126.851C1340.65 115.013 1338.64 104.047 1334.49 94.0486L1321.56 99.4108C1324.92 107.507 1326.65 116.621 1326.65 126.851H1340.65ZM1334.55 94.1849C1330.68 84.2704 1325.08 75.609 1317.75 68.279L1307.85 78.1785C1313.76 84.0884 1318.31 91.0944 1321.5 99.2745L1334.55 94.1849ZM1317.83 68.3636C1310.72 61.0099 1302.27 55.3887 1292.56 51.5034L1287.36 64.5021C1295.3 67.678 1302.08 72.2075 1307.77 78.0939L1317.83 68.3636ZM1292.56 51.5034C1282.83 47.613 1272.34 45.7067 1261.16 45.7067V59.7067C1270.73 59.7067 1279.43 61.3311 1287.36 64.5021L1292.56 51.5034ZM1261.16 45.7067C1249.98 45.7067 1239.49 47.613 1229.77 51.5034L1234.97 64.5021C1242.89 61.3311 1251.6 59.7067 1261.16 59.7067V45.7067ZM1229.71 51.5265C1220.24 55.4115 1211.85 61.0077 1204.58 68.279L1214.48 78.1785C1220.45 72.2097 1227.28 67.6553 1235.02 64.4789L1229.71 51.5265ZM1204.58 68.279C1197.28 75.5782 1191.59 84.1927 1187.5 94.0486L1200.44 99.4108C1203.85 91.172 1208.54 84.1192 1214.48 78.1785L1204.58 68.279ZM1187.45 94.1849C1183.56 104.146 1181.67 115.064 1181.67 126.851H1195.67C1195.67 116.571 1197.32 107.408 1200.49 99.2745L1187.45 94.1849ZM1181.67 126.851C1181.67 138.438 1183.57 149.331 1187.43 159.464L1200.51 154.48C1197.31 146.077 1195.67 136.889 1195.67 126.851H1181.67ZM1187.5 159.653C1191.57 169.459 1197.12 178.047 1204.16 185.338L1214.23 175.608C1208.48 169.659 1203.87 162.579 1200.44 154.291L1187.5 159.653ZM1204.25 185.422C1211.55 192.723 1220.07 198.321 1229.77 202.198L1234.97 189.199C1227.01 186.015 1220.08 181.462 1214.15 175.523L1204.25 185.422ZM1229.77 202.198C1239.49 206.088 1249.98 207.995 1261.16 207.995V193.995C1251.6 193.995 1242.89 192.37 1234.97 189.199L1229.77 202.198ZM1435.24 242.701V11.0007H1421.24V242.701H1435.24ZM1428.24 18.0007H1472.59V4.00071H1428.24V18.0007ZM1467.18 15.4375L1603.88 182.261L1614.71 173.388L1478 6.56395L1467.18 15.4375ZM1609.29 170.825H1587.78V184.825H1609.29V170.825ZM1594.78 177.825V11.0007H1580.78V177.825H1594.78ZM1587.78 18.0007H1640.74V4.00071H1587.78V18.0007ZM1633.74 11.0007V242.701H1647.74V11.0007H1633.74ZM1640.74 235.701H1596.71V249.701H1640.74V235.701ZM1602.12 238.258L1465.09 71.4335L1454.27 80.3199L1591.31 247.144L1602.12 238.258ZM1459.68 82.8767H1481.2V68.8767H1459.68V82.8767ZM1474.2 75.8767V242.701H1488.2V75.8767H1474.2ZM1481.2 235.701H1428.24V249.701H1481.2V235.701Z" fill="#D8DAE5" fill-opacity="0.15" mask="url(#path-1-outside-1_87_3)"/>
</svg>
